HIERARCHY
ROOT Hips
{
	OFFSET -0.001795 -0.223333 0.028219
	CHANNELS 6 Xposition Yposition Zposition Zrotation Yrotation Xrotation 
	JOINT LeftUpLeg
	{
		OFFSET 0.069520 -0.091406 -0.006815
		CHANNELS 3 Zrotation Yrotation Xrotation
		JOINT LeftLeg
		{
			OFFSET 0.034277 -0.375199 -0.004496
			CHANNELS 3 Zrotation Yrotation Xrotation
			JOINT LeftFoot
			{
				OFFSET -0.013596 -0.397961 -0.043693
				CHANNELS 3 Zrotation Yrotation Xrotation
				JOINT LeftToe
				{
					OFFSET 0.026358 -0.055791 0.119288
					CHANNELS 3 Zrotation Yrotation Xrotation
					End Site
					{
						OFFSET 0.000000 0.000000 0.000000
					}
				}
			}
		}
	}
	JOINT RightUpLeg
	{
		OFFSET -0.067670 -0.090522 -0.004320
		CHANNELS 3 Zrotation Yrotation Xrotation
		JOINT RightLeg
		{
			OFFSET -0.038290 -0.382569 -0.008850
			CHANNELS 3 Zrotation Yrotation Xrotation
			JOINT RightFoot
			{
				OFFSET 0.015774 -0.398415 -0.042312
				CHANNELS 3 Zrotation Yrotation Xrotation
				JOINT RightToe
				{
					OFFSET -0.025372 -0.048144 0.123348
					CHANNELS 3 Zrotation Yrotation Xrotation
					End Site
					{
						OFFSET 0.000000 0.000000 0.000000
					}
				}
			}
		}
	}
	JOINT Spine
	{
		OFFSET -0.002533 0.108963 -0.026696
		CHANNELS 3 Zrotation Yrotation Xrotation
		JOINT Spine1
		{
			OFFSET 0.005487 0.135180 0.001092
			CHANNELS 3 Zrotation Yrotation Xrotation
			JOINT Spine2
			{
				OFFSET 0.001457 0.052922 0.025425
				CHANNELS 3 Zrotation Yrotation Xrotation
				JOINT Neck
				{
					OFFSET -0.002778 0.213870 -0.042857
					CHANNELS 3 Zrotation Yrotation Xrotation
					JOINT Head
					{
						OFFSET 0.005152 0.064970 0.051349
						CHANNELS 3 Zrotation Yrotation Xrotation
						End Site
						{
							OFFSET 0.000000 0.000000 0.000000
						}
					}
				}
				JOINT LeftShoulder
				{
					OFFSET 0.078845 0.121749 -0.034090
					CHANNELS 3 Zrotation Yrotation Xrotation
					JOINT LeftArm
					{
						OFFSET 0.090977 0.030469 -0.008868
						CHANNELS 3 Zrotation Yrotation Xrotation
						JOINT LeftForeArm
						{
							OFFSET 0.259612 -0.012772 -0.027456
							CHANNELS 3 Zrotation Yrotation Xrotation
							JOINT LeftHand
							{
								OFFSET 0.249234 0.008986 -0.001171
								CHANNELS 3 Zrotation Yrotation Xrotation
								End Site
								{
									OFFSET 0.000000 0.000000 0.000000
								}
							}
						}
					}
				}
				JOINT RightShoulder
				{
					OFFSET -0.081759 0.118833 -0.038615
					CHANNELS 3 Zrotation Yrotation Xrotation
					JOINT RightArm
					{
						OFFSET -0.096012 0.032551 -0.009143
						CHANNELS 3 Zrotation Yrotation Xrotation
						JOINT RightForeArm
						{
							OFFSET -0.253742 -0.013329 -0.021401
							CHANNELS 3 Zrotation Yrotation Xrotation
							JOINT RightHand
							{
								OFFSET -0.255298 0.007772 -0.005559
								CHANNELS 3 Zrotation Yrotation Xrotation
								End Site
								{
									OFFSET 0.000000 0.000000 0.000000
								}
							}
						}
					}
				}
			}
		}
	}
}
MOTION
Frames: 18
Frame Time: 0.050000
0.065817 0.961009 -0.069688 -0.385858 5.313105 10.036793 3.390463 -0.793011 -10.177611 5.233273 -0.459915 -0.709896 -10.808295 -10.917573 15.373193 0.000000 0.000000 0.000000 -1.524745 0.568393 -5.769529 -3.298882 0.311523 -0.778797 0.651012 -4.071591 16.012602 0.000000 0.000000 0.000000 -2.216692 0.208283 -8.159700 -1.473796 0.698128 -1.020672 -0.886991 7.900870 -5.830571 6.532834 -3.129036 -8.426596 0.000000 0.000000 0.000000 -4.378057 7.736655 -3.657103 -18.125750 3.178340 -1.874020 -131.901572 -47.074733 87.157034 0.000000 0.000000 0.000000 9.667464 -4.107038 -1.691230 30.900270 -11.917214 -4.989556 108.388469 48.050863 71.197884 0.000000 0.000000 0.000000 
0.069713 0.960208 -0.067073 -0.870391 2.860603 9.897695 3.380056 -0.702474 -9.137785 5.350659 -0.457793 -1.087863 -9.377146 -9.466887 14.446681 0.000000 0.000000 0.000000 -1.789485 0.589662 -6.014531 -3.084586 0.279829 -0.740903 1.972405 -2.262466 16.326116 0.000000 0.000000 0.000000 -1.382339 0.259441 -7.984554 -1.642344 0.788388 -1.682046 -0.449260 5.928757 -3.902789 6.527561 -3.506214 -7.388517 0.000000 0.000000 0.000000 -5.731544 11.760528 -5.385986 -18.831704 11.342606 -3.109124 -120.388208 -41.964673 67.475206 0.000000 0.000000 0.000000 9.135620 -8.204646 -3.825266 28.500285 -18.178049 -5.665400 100.595123 42.385265 54.777462 0.000000 0.000000 0.000000 
0.072916 0.959144 -0.064846 -1.420608 0.333375 9.771650 3.753146 -0.625416 -8.472002 4.933354 -0.456509 -0.819415 -7.879584 -7.913732 13.428682 0.000000 0.000000 0.000000 -1.287345 0.640524 -6.499770 -2.954916 0.278373 -0.378283 1.656303 -3.314356 16.343048 0.000000 0.000000 0.000000 -0.830031 0.290945 -7.612466 -1.792386 0.846784 -1.359692 0.191772 4.335294 -3.075660 6.003011 -3.293222 -7.357824 0.000000 0.000000 0.000000 -7.427360 14.637083 -6.866251 -18.678630 16.515373 -3.728779 -111.621206 -37.900927 54.688653 0.000000 0.000000 0.000000 8.346795 -10.858841 -5.106996 25.841831 -22.013680 -5.668944 93.443714 39.052352 43.737158 0.000000 0.000000 0.000000 
0.075344 0.958159 -0.063303 -1.736476 -2.121655 9.286014 3.405414 -0.563734 -7.600358 5.350530 -0.557056 -0.309950 -6.470607 -6.344759 12.530652 0.000000 0.000000 0.000000 -1.383393 0.635540 -6.441121 -2.765843 0.291893 0.287358 2.313709 -2.164077 15.210403 0.000000 0.000000 0.000000 -0.327589 0.294832 -6.845592 -1.745394 0.822920 -1.437484 0.374412 3.264150 -2.639085 5.736262 -3.319651 -6.743887 0.000000 0.000000 0.000000 -8.916830 15.632182 -7.588276 -18.453648 20.190970 -4.071639 -106.008551 -34.935130 47.185165 0.000000 0.000000 0.000000 7.772983 -11.720621 -5.509909 24.487792 -24.773756 -5.784508 90.319474 38.034536 39.408186 0.000000 0.000000 0.000000 
0.077024 0.957549 -0.062390 -1.859891 -3.698902 9.314973 3.615418 -0.516451 -7.118803 4.684008 -0.481898 -0.517499 -5.645296 -5.322680 12.199518 0.000000 0.000000 0.000000 -1.117822 0.655721 -6.637533 -2.972314 0.308263 0.330338 2.098388 -2.661576 14.756681 0.000000 0.000000 0.000000 -0.173680 0.316460 -6.965061 -1.393264 0.660863 -1.244682 0.537143 2.112201 -2.633773 5.592647 -3.317770 -6.590876 0.000000 0.000000 0.000000 -9.765187 15.830724 -7.788247 -18.320378 21.531940 -4.134396 -102.049960 -32.344228 41.840709 0.000000 0.000000 0.000000 6.621939 -12.931453 -5.850079 23.558621 -25.719308 -5.721522 90.057313 35.819332 36.005891 0.000000 0.000000 0.000000 
0.078165 0.956608 -0.061943 -2.170282 -5.174701 9.255506 3.654370 -0.467671 -6.484518 4.744429 -0.472096 -0.864118 -4.825839 -4.324538 11.761079 0.000000 0.000000 0.000000 -0.804490 0.683644 -6.914769 -3.218017 0.353662 0.725299 2.429232 -2.099504 14.240315 0.000000 0.000000 0.000000 0.135634 0.335044 -6.962643 -1.238663 0.587224 -1.845681 1.000155 1.226467 -1.870924 5.198140 -3.195271 -6.125410 0.000000 0.000000 0.000000 -10.867283 15.076075 -7.618493 -18.288585 22.010006 -4.150798 -101.478720 -29.835976 39.038444 0.000000 0.000000 0.000000 6.279455 -13.210671 -5.946913 22.963808 -25.623948 -5.629298 91.081472 34.292248 34.146230 0.000000 0.000000 0.000000 
0.078763 0.955393 -0.061796 -2.027121 -6.195272 8.952899 3.684339 -0.422111 -5.854838 4.106511 -0.401921 -1.029346 -4.302836 -3.719456 11.389395 0.000000 0.000000 0.000000 -1.055955 0.693362 -7.035623 -3.302338 0.405582 1.395300 2.653680 -1.468437 13.394268 0.000000 0.000000 0.000000 -0.133740 0.323376 -6.686696 -0.847212 0.408210 -1.928623 1.253814 0.777592 -1.960943 4.907325 -3.065245 -5.803764 0.000000 0.000000 0.000000 -11.842233 14.387924 -7.450748 -18.358286 20.791420 -4.032083 -102.935306 -28.499179 38.735376 0.000000 0.000000 0.000000 6.733785 -13.931547 -6.386965 22.788010 -25.260341 -5.558560 94.395857 31.895679 32.845736 0.000000 0.000000 0.000000 
0.079191 0.953944 -0.061861 -2.292907 -7.481763 8.681027 4.047650 -0.369720 -5.347693 3.618145 -0.369975 -0.855190 -3.568261 -2.868454 10.756577 0.000000 0.000000 0.000000 -0.783209 0.694572 -7.042578 -3.477666 0.468052 2.053178 2.865160 -0.625711 12.071846 0.000000 0.000000 0.000000 0.073966 0.325426 -6.469135 -0.659611 0.319314 -1.904281 1.597577 0.172666 -2.019459 4.285687 -2.787980 -4.717479 0.000000 0.000000 0.000000 -12.769751 13.910842 -7.295980 -19.089532 19.634233 -4.109269 -103.402027 -27.194880 37.952105 0.000000 0.000000 0.000000 7.171080 -13.597738 -6.437599 23.506141 -24.096693 -5.632071 96.552247 31.145095 32.504335 0.000000 0.000000 0.000000 
0.079334 0.952453 -0.062102 -2.397506 -8.670612 8.197158 4.250569 -0.321252 -4.822936 3.146974 -0.352950 -0.392746 -2.903261 -2.088500 10.109840 0.000000 0.000000 0.000000 -1.048579 0.685966 -6.972584 -3.281507 0.496176 2.773850 3.477757 0.908452 11.145722 0.000000 0.000000 0.000000 0.117692 0.323629 -6.288965 -0.440398 0.219142 -1.360452 1.821565 -0.100318 -2.765275 4.036677 -2.654231 -4.282227 0.000000 0.000000 0.000000 -13.557304 12.819346 -6.834239 -19.438347 18.402844 -4.063473 -103.901467 -26.653791 38.006503 0.000000 0.000000 0.000000 7.884610 -12.925879 -6.423578 24.236922 -22.637356 -5.585461 97.125663 31.344588 32.630725 0.000000 0.000000 0.000000 
0.079514 0.951681 -0.062595 -2.339944 -9.544521 7.807980 4.100872 -0.290970 -4.366256 3.060548 -0.358546 -0.203163 -2.455065 -1.499903 9.819516 0.000000 0.000000 0.000000 -1.352679 0.667262 -6.785031 -3.048937 0.477784 2.925268 3.766720 1.566332 10.795438 0.000000 0.000000 0.000000 0.215840 0.338884 -6.413824 -0.263727 0.136190 -1.414301 1.626974 -0.400981 -2.669577 3.600166 -2.396424 -3.907303 0.000000 0.000000 0.000000 -14.498647 11.723247 -6.369962 -19.902035 16.497279 -4.009072 -102.275542 -27.017681 37.755606 0.000000 0.000000 0.000000 9.005970 -11.456427 -6.213743 25.766527 -20.652836 -5.631058 94.763278 32.322023 32.100795 0.000000 0.000000 0.000000 
0.079765 0.951139 -0.063354 -2.303566 -10.318404 7.265163 4.027409 -0.257942 -3.917681 2.900103 -0.367185 0.230064 -2.066755 -0.985367 9.541704 0.000000 0.000000 0.000000 -1.535282 0.638124 -6.480775 -2.828373 0.462407 3.094799 3.869188 1.779049 10.603933 0.000000 0.000000 0.000000 0.285505 0.341442 -6.352827 -0.287411 0.149026 -0.878965 1.681436 -0.386726 -3.121259 3.427737 -2.276637 -3.820917 0.000000 0.000000 0.000000 -14.906102 9.936141 -5.497658 -20.742552 15.087738 -4.065026 -99.002128 -27.735439 36.781762 0.000000 0.000000 0.000000 9.865060 -9.646983 -5.753489 27.194720 -17.941642 -5.421225 90.724897 33.922257 31.534188 0.000000 0.000000 0.000000 
0.080085 0.950717 -0.064513 -2.272817 -10.930852 6.804743 4.080018 -0.231327 -3.645142 2.575136 -0.353934 0.707976 -1.769591 -0.590258 9.316648 0.000000 0.000000 0.000000 -1.638994 0.616417 -6.249737 -2.627960 0.446999 3.223269 3.821157 1.675763 10.468992 0.000000 0.000000 0.000000 0.597370 0.358662 -6.435240 -0.289249 0.150713 -0.679874 1.222719 -0.109246 -2.909322 3.357144 -2.258046 -3.529092 0.000000 0.000000 0.000000 -15.685325 8.125414 -4.691140 -21.385519 13.013646 -4.001893 -94.699679 -29.103583 35.744457 0.000000 0.000000 0.000000 11.283353 -7.320890 -5.157476 28.371528 -15.012346 -5.050201 84.846680 34.787307 29.452208 0.000000 0.000000 0.000000 
0.080330 0.949595 -0.066169 -2.307463 -11.009826 6.663601 4.089694 -0.225172 -3.572802 2.618897 -0.360737 0.724727 -1.666562 -0.533133 8.924761 0.000000 0.000000 0.000000 -1.533222 0.591239 -5.989952 -2.534213 0.410154 2.864780 3.475690 1.180791 10.116662 0.000000 0.000000 0.000000 0.650065 0.363210 -6.479381 -0.174490 0.106063 -0.001931 1.176103 0.112124 -3.428415 3.587496 -2.403090 -3.558109 0.000000 0.000000 0.000000 -16.524873 5.325422 -3.396483 -22.393237 11.632441 -4.040422 -90.040018 -30.668375 34.621821 0.000000 0.000000 0.000000 12.822965 -4.715933 -4.380888 28.768204 -12.678791 -4.573787 78.038043 35.328240 26.898402 0.000000 0.000000 0.000000 
0.080396 0.948115 -0.068105 -2.250624 -10.834308 6.403285 4.110563 -0.218690 -3.490107 2.563954 -0.357543 0.806850 -1.676399 -0.688826 8.417049 0.000000 0.000000 0.000000 -1.567159 0.567940 -5.740103 -2.519229 0.401766 2.763532 3.282809 1.103966 9.638405 0.000000 0.000000 0.000000 0.778601 0.347794 -6.214611 -0.040011 0.040850 -0.085930 0.719855 0.436991 -3.038929 3.724286 -2.490972 -3.734508 0.000000 0.000000 0.000000 -17.907546 3.195253 -2.482452 -22.857586 9.448191 -3.867730 -84.066321 -32.363856 32.784215 0.000000 0.000000 0.000000 14.434065 -2.239167 -3.528933 28.810166 -10.682916 -4.149270 71.871695 35.585832 24.618749 0.000000 0.000000 0.000000 
0.080319 0.946451 -0.069767 -2.280037 -10.450956 5.998724 4.163031 -0.212966 -3.435262 2.676339 -0.391636 1.217713 -1.740518 -0.984220 7.731144 0.000000 0.000000 0.000000 -1.370244 0.512319 -5.168137 -2.693259 0.403413 2.492076 3.004990 0.893744 9.122464 0.000000 0.000000 0.000000 0.956023 0.343775 -6.120937 -0.071647 0.061995 0.684454 0.363996 0.882994 -3.314509 4.192333 -2.808939 -3.720896 0.000000 0.000000 0.000000 -19.129137 0.768186 -1.439523 -23.062586 7.496383 -3.611325 -79.186113 -33.570062 31.033643 0.000000 0.000000 0.000000 15.543077 -0.206872 -2.643238 29.070202 -10.052370 -4.054990 67.988636 35.666929 23.322251 0.000000 0.000000 0.000000 
0.080196 0.945036 -0.070744 -2.249914 -10.018726 5.612680 4.173027 -0.206916 -3.329624 2.749456 -0.416271 1.535246 -1.849868 -1.332896 7.158232 0.000000 0.000000 0.000000 -1.271946 0.481019 -4.849070 -2.799368 0.432394 2.702204 2.679229 0.597892 8.583762 0.000000 0.000000 0.000000 1.034669 0.315610 -5.701225 0.177527 -0.062624 0.332874 -0.234821 1.378044 -2.777429 4.933680 -3.319568 -3.944580 0.000000 0.000000 0.000000 -20.111581 -1.004292 -0.710773 -22.942413 6.339901 -3.422227 -76.655918 -34.538652 30.310404 0.000000 0.000000 0.000000 16.253423 0.984796 -1.993151 29.332330 -9.622882 -4.067388 66.039317 35.357822 22.549585 0.000000 0.000000 0.000000 
0.080109 0.944495 -0.070996 -2.244248 -9.601627 5.470194 4.273445 -0.194551 -3.109814 2.686115 -0.393038 1.256481 -2.030524 -1.687627 6.996916 0.000000 0.000000 0.000000 -1.262630 0.450707 -4.519383 -2.724269 0.409869 2.483249 2.474372 0.305439 8.442370 0.000000 0.000000 0.000000 1.030650 0.301609 -5.518476 0.303383 -0.123425 0.450275 -0.457977 1.688337 -2.793088 5.408460 -3.708391 -3.478061 0.000000 0.000000 0.000000 -20.889526 -1.882815 -0.419931 -22.467870 6.090228 -3.284536 -77.524983 -34.849225 30.850250 0.000000 0.000000 0.000000 16.443624 1.391652 -1.693508 29.118541 -10.305586 -4.198833 67.367257 35.236309 23.176423 0.000000 0.000000 0.000000 
0.080061 0.944020 -0.070689 -2.408811 -9.638738 5.840214 4.676379 -0.186094 -3.093222 2.291376 -0.311028 0.626049 -2.010780 -1.676809 6.938783 0.000000 0.000000 0.000000 -1.047496 0.483123 -4.898110 -2.806042 0.421094 2.517689 2.459201 0.316286 8.361447 0.000000 0.000000 0.000000 1.332227 0.332223 -5.879908 0.358832 -0.148921 0.346934 -0.849323 2.105405 -2.641818 6.140138 -4.200726 -3.733571 0.000000 0.000000 0.000000 -19.977144 -2.114977 -0.364169 -22.852155 6.897072 -3.435372 -81.769293 -34.495811 32.669300 0.000000 0.000000 0.000000 15.961079 1.065537 -1.681514 28.849065 -10.612937 -4.251280 71.222137 34.632781 24.461163 0.000000 0.000000 0.000000 
